Coordinates
version=1
nRows=6
nColumns=36
inDegrees=yes

Units are S.I. units (second, meters, Newtons, ...)
If the header above contains a line with 'inDegrees', this indicates whether rotational values are in degrees (yes) or radians (no).

endheader
time	pelvis_tilt	pelvis_list	pelvis_rotation	pelvis_tx	pelvis_ty	pelvis_tz	hip_flexion_r	hip_adduction_r	hip_rotation_r	knee_angle_r	knee_angle_r_beta	ankle_angle_r	subtalar_angle_r	mtp_angle_r	hip_flexion_l	hip_adduction_l	hip_rotation_l	knee_angle_l	knee_angle_l_beta	ankle_angle_l	subtalar_angle_l	mtp_angle_l	lumbar_extension	lumbar_bending	lumbar_rotation	arm_flex_r	arm_add_r	arm_rot_r	elbow_flex_r	pro_sup_r	arm_flex_l	arm_add_l	arm_rot_l	elbow_flex_l	pro_sup_l
      0.00000000	      3.91391463	     -3.90469031	      5.28141866	      0.57295989	      1.05884843	      0.86973427	    -11.97408804	      6.21193491	     -5.09426871	      2.39611547	      0.04182010	     10.58296764	     -0.98044763	     -7.01340108	     21.71699507	     -8.27395112	     -1.09305580	     30.57595833	      0.53365114	      4.31111058	     -4.73419899	     -7.01340108	    -15.98745760	      7.04824387	      6.15378189	     13.20863845	    -17.00047131	      9.33850257	     31.85228170	     81.72486185	     -5.82597764	     -5.91334540	     -8.57735791	     16.20194062	     77.71080948
      0.01666670	      4.63538314	     -4.06145191	      4.84752992	      0.57259703	      1.05259991	      0.86779577	    -15.11452863	      6.65200087	     -4.68251987	      0.76548829	      0.01336029	     11.67657360	     -1.53702578	     -7.01724203	     21.43919861	     -8.32530330	     -1.15658107	     26.24000573	      0.45797450	      2.32521544	     -5.07777977	     -7.01724203	    -17.87528988	      7.68918597	      6.94039526	     13.17563663	    -17.40966244	      7.26305684	     35.56366498	     80.71804214	     -5.95284074	     -5.94038696	     -8.64769123	     15.13156558	     77.70364139
      0.03333330	      4.58654824	     -3.56193800	      5.06771128	      0.56932234	      1.04908987	      0.86622069	    -16.85188871	      6.39436058	     -4.64088853	      0.39799438	      0.00694631	     13.07668113	     -1.33618422	     -7.08702663	     21.82780108	     -7.34391584	     -0.72489167	     20.83505666	      0.36364034	      1.57133322	     -4.20161177	     -7.08702663	    -18.78944447	      7.58122217	      7.75939205	     13.09225640	    -17.37392521	      4.47721282	     38.17597513	     78.51700703	     -5.55984895	     -6.25147335	     -8.05396326	     14.11722795	     76.85157321
      0.05000000	      3.51797196	     -3.14338183	      5.97281482	      0.56658805	      1.04334863	      0.86474823	    -17.30634925	      6.36021794	     -5.66092143	      0.32374258	      0.00565037	     14.10767787	     -0.12464210	     -7.15054022	     23.06857120	     -6.07601757	      1.07787048	     14.86493064	      0.25944198	      3.03690244	     -3.57574958	     -7.15054022	    -18.18572995	      7.52064825	      6.45747896	     14.29677306	    -16.61373771	      3.68249390	     38.95026189	     77.71835919	     -6.45999509	     -6.72460211	     -9.32123626	     13.91873357	     75.56411315
      0.06666670	      2.65434974	     -2.61380463	      6.57682473	      0.56598450	      1.03787401	      0.86336570	    -17.94632285	      6.18758007	     -6.15680330	      0.30133802	      0.00525934	     14.27236746	      0.32260898	     -7.23417967	     23.81224573	     -4.86798441	      2.56455125	      9.95146920	      0.17368590	      5.12710475	     -2.47632393	     -7.23417967	    -17.73951394	      6.96723137	      5.59678847	     15.13178652	    -16.09124054	      3.46971385	     39.76371277	     76.53805497	     -7.66184044	     -7.18319928	    -11.07554898	     14.62827615	     73.78696574
      0.08333330	      1.82674182	     -1.80694075	      7.18148762	      0.56755937	      1.03267589	      0.86192035	    -18.54457637	      5.63318861	     -6.54160691	      0.32538157	      0.00567898	     13.73894564	      0.04669894	     -7.29655366	     24.64831852	     -3.41704679	      3.67654978	      7.28750256	      0.12719091	      7.00201459	     -1.31935004	     -7.29655366	    -17.03953971	      5.93866199	      4.58934023	     15.61767073	    -15.45104745	      3.26100699	     39.98914507	     75.51852095	     -8.76792053	     -7.72376239	    -12.07537520	     14.85469454	     72.63144227
